<mxfile host="app.diagrams.net" modified="2022-01-03T00:47:55.491Z" agent="5.0 (Macintosh; Intel Mac OS X 10_15_7) AppleWebKit/537.36 (KHTML, like Gecko) Chrome/96.0.4664.110 Safari/537.36" etag="ffslciv215RtkKdd1KS1" version="16.1.2" type="github" pages="2">
  <diagram id="8MAGO7haqK6ek7z3_LDT" name="Congés">
    <mxGraphModel dx="2595" dy="-33" grid="1" gridSize="10" guides="1" tooltips="1" connect="1" arrows="1" fold="1" page="1" pageScale="1" pageWidth="1169" pageHeight="827" math="0" shadow="0">
      <root>
        <mxCell id="0" />
        <mxCell id="1" parent="0" />
        <mxCell id="v7TOKdM5l5uyi8fNWk8e-1" value="Workflow Congés" style="shape=table;childLayout=tableLayout;rowLines=0;columnLines=0;startSize=40;html=1;whiteSpace=wrap;collapsible=0;recursiveResize=0;expand=0;pointerEvents=0;fontStyle=1;align=center;" parent="1" vertex="1">
          <mxGeometry x="-1160" y="840" width="1140" height="670" as="geometry" />
        </mxCell>
        <mxCell id="v7TOKdM5l5uyi8fNWk8e-2" value="Employé.e" style="swimlane;horizontal=0;points=[[0,0.5],[1,0.5]];portConstraint=eastwest;startSize=40;html=1;whiteSpace=wrap;collapsible=0;recursiveResize=0;expand=0;pointerEvents=0;fontStyle=1" parent="v7TOKdM5l5uyi8fNWk8e-1" vertex="1">
          <mxGeometry y="40" width="1140" height="210" as="geometry" />
        </mxCell>
        <mxCell id="v7TOKdM5l5uyi8fNWk8e-3" value="Décalaration" style="swimlane;connectable=0;startSize=40;html=1;whiteSpace=wrap;collapsible=0;recursiveResize=0;expand=0;pointerEvents=0;" parent="v7TOKdM5l5uyi8fNWk8e-2" vertex="1">
          <mxGeometry x="40" width="590" height="210" as="geometry">
            <mxRectangle width="590" height="210" as="alternateBounds" />
          </mxGeometry>
        </mxCell>
        <mxCell id="v7TOKdM5l5uyi8fNWk8e-4" value="Saisie et Enregistrement" style="points=[[0.25,0,0],[0.5,0,0],[0.75,0,0],[1,0.25,0],[1,0.5,0],[1,0.75,0],[0.75,1,0],[0.5,1,0],[0.25,1,0],[0,0.75,0],[0,0.5,0],[0,0.25,0]];shape=mxgraph.bpmn.task;whiteSpace=wrap;rectStyle=rounded;size=10;taskMarker=abstract;isLoopStandard=1;" parent="v7TOKdM5l5uyi8fNWk8e-3" vertex="1">
          <mxGeometry x="110" y="100" width="120" height="80" as="geometry" />
        </mxCell>
        <mxCell id="v7TOKdM5l5uyi8fNWk8e-5" value="Soumission" style="points=[[0.25,0,0],[0.5,0,0],[0.75,0,0],[1,0.25,0],[1,0.5,0],[1,0.75,0],[0.75,1,0],[0.5,1,0],[0.25,1,0],[0,0.75,0],[0,0.5,0],[0,0.25,0]];shape=mxgraph.bpmn.task;whiteSpace=wrap;rectStyle=rounded;size=10;taskMarker=abstract;" parent="v7TOKdM5l5uyi8fNWk8e-3" vertex="1">
          <mxGeometry x="350" y="100" width="120" height="80" as="geometry" />
        </mxCell>
        <mxCell id="v7TOKdM5l5uyi8fNWk8e-6" value="Validations" style="swimlane;connectable=0;startSize=40;html=1;whiteSpace=wrap;collapsible=0;recursiveResize=0;expand=0;pointerEvents=0;" parent="v7TOKdM5l5uyi8fNWk8e-2" vertex="1">
          <mxGeometry x="630" width="250" height="210" as="geometry">
            <mxRectangle width="250" height="210" as="alternateBounds" />
          </mxGeometry>
        </mxCell>
        <mxCell id="v7TOKdM5l5uyi8fNWk8e-8" value="Annulations / Réalisation" style="swimlane;connectable=0;startSize=40;html=1;whiteSpace=wrap;collapsible=0;recursiveResize=0;expand=0;pointerEvents=0;" parent="v7TOKdM5l5uyi8fNWk8e-2" vertex="1">
          <mxGeometry x="880" width="260" height="210" as="geometry">
            <mxRectangle width="260" height="210" as="alternateBounds" />
          </mxGeometry>
        </mxCell>
        <mxCell id="v7TOKdM5l5uyi8fNWk8e-7" value="Annulation&#xa;Employé.e&#xa;J-3" style="points=[[0.25,0,0],[0.5,0,0],[0.75,0,0],[1,0.25,0],[1,0.5,0],[1,0.75,0],[0.75,1,0],[0.5,1,0],[0.25,1,0],[0,0.75,0],[0,0.5,0],[0,0.25,0]];shape=mxgraph.bpmn.task;whiteSpace=wrap;rectStyle=rounded;size=10;taskMarker=abstract;fillColor=#ffe6cc;strokeColor=#d79b00;" parent="v7TOKdM5l5uyi8fNWk8e-8" vertex="1">
          <mxGeometry x="20" y="100" width="120" height="80" as="geometry" />
        </mxCell>
        <mxCell id="v7TOKdM5l5uyi8fNWk8e-9" value="Système" style="swimlane;horizontal=0;points=[[0,0.5],[1,0.5]];portConstraint=eastwest;startSize=40;html=1;whiteSpace=wrap;collapsible=0;recursiveResize=0;expand=0;pointerEvents=0;" parent="v7TOKdM5l5uyi8fNWk8e-1" vertex="1">
          <mxGeometry y="250" width="1140" height="105" as="geometry" />
        </mxCell>
        <mxCell id="v7TOKdM5l5uyi8fNWk8e-10" value="" style="swimlane;connectable=0;startSize=0;html=1;whiteSpace=wrap;collapsible=0;recursiveResize=0;expand=0;pointerEvents=0;fillColor=#d5e8d4;strokeColor=#82b366;" parent="v7TOKdM5l5uyi8fNWk8e-9" vertex="1">
          <mxGeometry x="40" width="590" height="105" as="geometry">
            <mxRectangle width="590" height="105" as="alternateBounds" />
          </mxGeometry>
        </mxCell>
        <mxCell id="v7TOKdM5l5uyi8fNWk8e-11" value="Brouillon" style="points=[[0.145,0.145,0],[0.5,0,0],[0.855,0.145,0],[1,0.5,0],[0.855,0.855,0],[0.5,1,0],[0.145,0.855,0],[0,0.5,0]];shape=mxgraph.bpmn.event;html=1;verticalLabelPosition=bottom;labelBackgroundColor=#ffffff;verticalAlign=top;align=center;perimeter=ellipsePerimeter;outlineConnect=0;aspect=fixed;outline=throwing;symbol=general;" parent="v7TOKdM5l5uyi8fNWk8e-10" vertex="1">
          <mxGeometry x="270" y="27.5" width="50" height="50" as="geometry" />
        </mxCell>
        <mxCell id="v7TOKdM5l5uyi8fNWk8e-12" value="Initialisé" style="points=[[0.145,0.145,0],[0.5,0,0],[0.855,0.145,0],[1,0.5,0],[0.855,0.855,0],[0.5,1,0],[0.145,0.855,0],[0,0.5,0]];shape=mxgraph.bpmn.event;html=1;verticalLabelPosition=bottom;labelBackgroundColor=#ffffff;verticalAlign=top;align=center;perimeter=ellipsePerimeter;outlineConnect=0;aspect=fixed;outline=standard;symbol=general;fillColor=#d5e8d4;strokeColor=#82b366;" parent="v7TOKdM5l5uyi8fNWk8e-10" vertex="1">
          <mxGeometry x="20" y="27.5" width="50" height="50" as="geometry" />
        </mxCell>
        <mxCell id="v7TOKdM5l5uyi8fNWk8e-13" value="Soumis.&amp;nbsp; &amp;nbsp; &amp;nbsp; &amp;nbsp; &amp;nbsp; &amp;nbsp; &amp;nbsp; &amp;nbsp;" style="points=[[0.145,0.145,0],[0.5,0,0],[0.855,0.145,0],[1,0.5,0],[0.855,0.855,0],[0.5,1,0],[0.145,0.855,0],[0,0.5,0]];shape=mxgraph.bpmn.event;html=1;verticalLabelPosition=bottom;labelBackgroundColor=#ffffff;verticalAlign=top;align=center;perimeter=ellipsePerimeter;outlineConnect=0;aspect=fixed;outline=throwing;symbol=general;" parent="v7TOKdM5l5uyi8fNWk8e-10" vertex="1">
          <mxGeometry x="510" y="27.5" width="50" height="50" as="geometry" />
        </mxCell>
        <mxCell id="v7TOKdM5l5uyi8fNWk8e-14" value="" style="swimlane;connectable=0;startSize=0;html=1;whiteSpace=wrap;collapsible=0;recursiveResize=0;expand=0;pointerEvents=0;" parent="v7TOKdM5l5uyi8fNWk8e-9" vertex="1">
          <mxGeometry x="630" width="250" height="105" as="geometry">
            <mxRectangle width="250" height="105" as="alternateBounds" />
          </mxGeometry>
        </mxCell>
        <mxCell id="v7TOKdM5l5uyi8fNWk8e-15" value="&amp;nbsp; &amp;nbsp; &amp;nbsp; &amp;nbsp; &amp;nbsp; &amp;nbsp; &amp;nbsp;Validé" style="points=[[0.145,0.145,0],[0.5,0,0],[0.855,0.145,0],[1,0.5,0],[0.855,0.855,0],[0.5,1,0],[0.145,0.855,0],[0,0.5,0]];shape=mxgraph.bpmn.event;html=1;verticalLabelPosition=bottom;labelBackgroundColor=#ffffff;verticalAlign=top;align=center;perimeter=ellipsePerimeter;outlineConnect=0;aspect=fixed;outline=throwing;symbol=general;" parent="v7TOKdM5l5uyi8fNWk8e-14" vertex="1">
          <mxGeometry x="184" y="27.5" width="50" height="50" as="geometry" />
        </mxCell>
        <mxCell id="v7TOKdM5l5uyi8fNWk8e-16" value="" style="swimlane;connectable=0;startSize=0;html=1;whiteSpace=wrap;collapsible=0;recursiveResize=0;expand=0;pointerEvents=0;" parent="v7TOKdM5l5uyi8fNWk8e-9" vertex="1">
          <mxGeometry x="880" width="260" height="105" as="geometry">
            <mxRectangle width="260" height="105" as="alternateBounds" />
          </mxGeometry>
        </mxCell>
        <mxCell id="v7TOKdM5l5uyi8fNWk8e-17" value="Réalisé" style="points=[[0.145,0.145,0],[0.5,0,0],[0.855,0.145,0],[1,0.5,0],[0.855,0.855,0],[0.5,1,0],[0.145,0.855,0],[0,0.5,0]];shape=mxgraph.bpmn.event;html=1;verticalLabelPosition=bottom;labelBackgroundColor=#ffffff;verticalAlign=top;align=center;perimeter=ellipsePerimeter;outlineConnect=0;aspect=fixed;outline=end;symbol=terminate2;fillColor=#f8cecc;strokeColor=#b85450;" parent="v7TOKdM5l5uyi8fNWk8e-16" vertex="1">
          <mxGeometry x="55" y="27.5" width="50" height="50" as="geometry" />
        </mxCell>
        <mxCell id="v7TOKdM5l5uyi8fNWk8e-39" value="Annulé&amp;nbsp; &amp;nbsp; &amp;nbsp; &amp;nbsp; &amp;nbsp; &amp;nbsp; &amp;nbsp;" style="points=[[0.145,0.145,0],[0.5,0,0],[0.855,0.145,0],[1,0.5,0],[0.855,0.855,0],[0.5,1,0],[0.145,0.855,0],[0,0.5,0]];shape=mxgraph.bpmn.event;html=1;verticalLabelPosition=bottom;labelBackgroundColor=#ffffff;verticalAlign=top;align=center;perimeter=ellipsePerimeter;outlineConnect=0;aspect=fixed;outline=end;symbol=terminate2;fillColor=#f8cecc;strokeColor=#b85450;" parent="v7TOKdM5l5uyi8fNWk8e-16" vertex="1">
          <mxGeometry x="170" y="27.5" width="50" height="50" as="geometry" />
        </mxCell>
        <mxCell id="v7TOKdM5l5uyi8fNWk8e-42" value="" style="edgeStyle=elbowEdgeStyle;fontSize=12;html=1;endArrow=blockThin;endFill=1;rounded=0;exitX=1;exitY=0.5;exitDx=0;exitDy=0;exitPerimeter=0;entryX=0;entryY=0.5;entryDx=0;entryDy=0;entryPerimeter=0;" parent="v7TOKdM5l5uyi8fNWk8e-9" source="v7TOKdM5l5uyi8fNWk8e-15" target="v7TOKdM5l5uyi8fNWk8e-17" edge="1">
          <mxGeometry width="160" relative="1" as="geometry">
            <mxPoint x="855" y="87.5" as="sourcePoint" />
            <mxPoint x="940" y="201" as="targetPoint" />
            <Array as="points">
              <mxPoint x="910" y="53" />
            </Array>
          </mxGeometry>
        </mxCell>
        <mxCell id="v7TOKdM5l5uyi8fNWk8e-18" value="Manager" style="swimlane;horizontal=0;points=[[0,0.5],[1,0.5]];portConstraint=eastwest;startSize=40;html=1;whiteSpace=wrap;collapsible=0;recursiveResize=0;expand=0;pointerEvents=0;" parent="v7TOKdM5l5uyi8fNWk8e-1" vertex="1">
          <mxGeometry y="355" width="1140" height="315" as="geometry" />
        </mxCell>
        <mxCell id="v7TOKdM5l5uyi8fNWk8e-19" value="" style="swimlane;connectable=0;startSize=0;html=1;whiteSpace=wrap;collapsible=0;recursiveResize=0;expand=0;pointerEvents=0;" parent="v7TOKdM5l5uyi8fNWk8e-18" vertex="1">
          <mxGeometry x="40" width="590" height="315" as="geometry">
            <mxRectangle width="590" height="315" as="alternateBounds" />
          </mxGeometry>
        </mxCell>
        <mxCell id="v7TOKdM5l5uyi8fNWk8e-20" value="" style="swimlane;connectable=0;startSize=0;html=1;whiteSpace=wrap;collapsible=0;recursiveResize=0;expand=0;pointerEvents=0;" parent="v7TOKdM5l5uyi8fNWk8e-18" vertex="1">
          <mxGeometry x="630" width="250" height="315" as="geometry">
            <mxRectangle width="250" height="315" as="alternateBounds" />
          </mxGeometry>
        </mxCell>
        <mxCell id="v7TOKdM5l5uyi8fNWk8e-21" value="Validation" style="points=[[0.25,0,0],[0.5,0,0],[0.75,0,0],[1,0.25,0],[1,0.5,0],[1,0.75,0],[0.75,1,0],[0.5,1,0],[0.25,1,0],[0,0.75,0],[0,0.5,0],[0,0.25,0]];shape=mxgraph.bpmn.task;whiteSpace=wrap;rectStyle=rounded;size=10;taskMarker=abstract;" parent="v7TOKdM5l5uyi8fNWk8e-20" vertex="1">
          <mxGeometry x="30" y="35" width="120" height="80" as="geometry" />
        </mxCell>
        <mxCell id="v7TOKdM5l5uyi8fNWk8e-22" value="Refus&#xa;Motivé&#xa;J-15" style="points=[[0.25,0,0],[0.5,0,0],[0.75,0,0],[1,0.25,0],[1,0.5,0],[1,0.75,0],[0.75,1,0],[0.5,1,0],[0.25,1,0],[0,0.75,0],[0,0.5,0],[0,0.25,0]];shape=mxgraph.bpmn.task;whiteSpace=wrap;rectStyle=rounded;size=10;taskMarker=abstract;fillColor=#ffe6cc;strokeColor=#d79b00;" parent="v7TOKdM5l5uyi8fNWk8e-20" vertex="1">
          <mxGeometry x="30" y="145" width="120" height="80" as="geometry" />
        </mxCell>
        <mxCell id="v7TOKdM5l5uyi8fNWk8e-23" value="" style="swimlane;connectable=0;startSize=0;html=1;whiteSpace=wrap;collapsible=0;recursiveResize=0;expand=0;pointerEvents=0;" parent="v7TOKdM5l5uyi8fNWk8e-18" vertex="1">
          <mxGeometry x="880" width="260" height="315" as="geometry">
            <mxRectangle width="260" height="315" as="alternateBounds" />
          </mxGeometry>
        </mxCell>
        <mxCell id="v7TOKdM5l5uyi8fNWk8e-41" value="Annulation&#xa;Manager Motivée&#xa;J-15" style="points=[[0.25,0,0],[0.5,0,0],[0.75,0,0],[1,0.25,0],[1,0.5,0],[1,0.75,0],[0.75,1,0],[0.5,1,0],[0.25,1,0],[0,0.75,0],[0,0.5,0],[0,0.25,0]];shape=mxgraph.bpmn.task;whiteSpace=wrap;rectStyle=rounded;size=10;taskMarker=abstract;fillColor=#ffe6cc;strokeColor=#d79b00;" parent="v7TOKdM5l5uyi8fNWk8e-23" vertex="1">
          <mxGeometry x="50" y="46" width="120" height="80" as="geometry" />
        </mxCell>
        <mxCell id="v7TOKdM5l5uyi8fNWk8e-25" style="edgeStyle=orthogonalEdgeStyle;rounded=0;orthogonalLoop=1;jettySize=auto;html=1;exitX=1;exitY=0.5;exitDx=0;exitDy=0;exitPerimeter=0;entryX=0;entryY=0.5;entryDx=0;entryDy=0;entryPerimeter=0;" parent="v7TOKdM5l5uyi8fNWk8e-1" source="v7TOKdM5l5uyi8fNWk8e-4" target="v7TOKdM5l5uyi8fNWk8e-11" edge="1">
          <mxGeometry relative="1" as="geometry" />
        </mxCell>
        <mxCell id="v7TOKdM5l5uyi8fNWk8e-26" style="edgeStyle=orthogonalEdgeStyle;rounded=0;orthogonalLoop=1;jettySize=auto;html=1;exitX=1;exitY=0.5;exitDx=0;exitDy=0;exitPerimeter=0;entryX=0;entryY=0.5;entryDx=0;entryDy=0;entryPerimeter=0;" parent="v7TOKdM5l5uyi8fNWk8e-1" source="v7TOKdM5l5uyi8fNWk8e-12" target="v7TOKdM5l5uyi8fNWk8e-4" edge="1">
          <mxGeometry relative="1" as="geometry" />
        </mxCell>
        <mxCell id="v7TOKdM5l5uyi8fNWk8e-27" value="" style="edgeStyle=elbowEdgeStyle;fontSize=12;html=1;endArrow=blockThin;endFill=1;rounded=0;entryX=0;entryY=0.5;entryDx=0;entryDy=0;entryPerimeter=0;exitX=1;exitY=0.5;exitDx=0;exitDy=0;exitPerimeter=0;" parent="v7TOKdM5l5uyi8fNWk8e-1" source="v7TOKdM5l5uyi8fNWk8e-5" target="v7TOKdM5l5uyi8fNWk8e-13" edge="1">
          <mxGeometry width="160" relative="1" as="geometry">
            <mxPoint x="430" y="696" as="sourcePoint" />
            <mxPoint x="300" y="730.9999999999998" as="targetPoint" />
            <Array as="points" />
          </mxGeometry>
        </mxCell>
        <mxCell id="v7TOKdM5l5uyi8fNWk8e-28" value="" style="edgeStyle=elbowEdgeStyle;fontSize=12;html=1;endArrow=blockThin;endFill=1;rounded=0;exitX=1;exitY=0.5;exitDx=0;exitDy=0;exitPerimeter=0;" parent="v7TOKdM5l5uyi8fNWk8e-1" source="v7TOKdM5l5uyi8fNWk8e-11" target="v7TOKdM5l5uyi8fNWk8e-5" edge="1">
          <mxGeometry width="160" relative="1" as="geometry">
            <mxPoint x="500" y="190" as="sourcePoint" />
            <mxPoint x="535" y="312.5" as="targetPoint" />
            <Array as="points" />
          </mxGeometry>
        </mxCell>
        <mxCell id="v7TOKdM5l5uyi8fNWk8e-29" value="" style="edgeStyle=elbowEdgeStyle;fontSize=12;html=1;endArrow=blockThin;endFill=1;rounded=0;entryX=0.5;entryY=0;entryDx=0;entryDy=0;entryPerimeter=0;exitX=1;exitY=0.5;exitDx=0;exitDy=0;exitPerimeter=0;" parent="v7TOKdM5l5uyi8fNWk8e-1" source="v7TOKdM5l5uyi8fNWk8e-7" target="v7TOKdM5l5uyi8fNWk8e-39" edge="1">
          <mxGeometry width="160" relative="1" as="geometry">
            <mxPoint x="640" y="425" as="sourcePoint" />
            <mxPoint x="770" y="230" as="targetPoint" />
            <Array as="points">
              <mxPoint x="1075" y="180" />
            </Array>
          </mxGeometry>
        </mxCell>
        <mxCell id="v7TOKdM5l5uyi8fNWk8e-30" value="" style="edgeStyle=orthogonalEdgeStyle;rounded=0;orthogonalLoop=1;jettySize=auto;html=1;entryX=0;entryY=0.25;entryDx=0;entryDy=0;entryPerimeter=0;" parent="v7TOKdM5l5uyi8fNWk8e-1" source="v7TOKdM5l5uyi8fNWk8e-13" target="v7TOKdM5l5uyi8fNWk8e-7" edge="1">
          <mxGeometry relative="1" as="geometry">
            <Array as="points">
              <mxPoint x="575" y="160" />
            </Array>
          </mxGeometry>
        </mxCell>
        <mxCell id="v7TOKdM5l5uyi8fNWk8e-31" value="" style="edgeStyle=elbowEdgeStyle;fontSize=12;html=1;endArrow=blockThin;endFill=1;rounded=0;entryX=0;entryY=0.5;entryDx=0;entryDy=0;entryPerimeter=0;exitX=1;exitY=0.5;exitDx=0;exitDy=0;exitPerimeter=0;" parent="v7TOKdM5l5uyi8fNWk8e-1" source="v7TOKdM5l5uyi8fNWk8e-21" target="v7TOKdM5l5uyi8fNWk8e-15" edge="1">
          <mxGeometry width="160" relative="1" as="geometry">
            <mxPoint x="570" y="721" as="sourcePoint" />
            <mxPoint x="530" y="730.9999999999998" as="targetPoint" />
            <Array as="points" />
          </mxGeometry>
        </mxCell>
        <mxCell id="v7TOKdM5l5uyi8fNWk8e-32" value="" style="edgeStyle=orthogonalEdgeStyle;rounded=0;orthogonalLoop=1;jettySize=auto;html=1;entryX=0;entryY=0.75;entryDx=0;entryDy=0;entryPerimeter=0;exitX=0.5;exitY=0;exitDx=0;exitDy=0;exitPerimeter=0;" parent="v7TOKdM5l5uyi8fNWk8e-1" source="v7TOKdM5l5uyi8fNWk8e-15" target="v7TOKdM5l5uyi8fNWk8e-7" edge="1">
          <mxGeometry relative="1" as="geometry">
            <mxPoint x="859" y="270" as="sourcePoint" />
            <mxPoint x="325" y="756" as="targetPoint" />
            <Array as="points">
              <mxPoint x="839" y="200" />
            </Array>
          </mxGeometry>
        </mxCell>
        <mxCell id="v7TOKdM5l5uyi8fNWk8e-33" value="" style="edgeStyle=orthogonalEdgeStyle;rounded=0;orthogonalLoop=1;jettySize=auto;html=1;entryX=0;entryY=0.5;entryDx=0;entryDy=0;entryPerimeter=0;exitX=1;exitY=0.5;exitDx=0;exitDy=0;exitPerimeter=0;" parent="v7TOKdM5l5uyi8fNWk8e-1" source="v7TOKdM5l5uyi8fNWk8e-13" target="v7TOKdM5l5uyi8fNWk8e-21" edge="1">
          <mxGeometry relative="1" as="geometry">
            <mxPoint x="585" y="287.5" as="sourcePoint" />
            <mxPoint x="700" y="230" as="targetPoint" />
            <Array as="points">
              <mxPoint x="620" y="303" />
              <mxPoint x="620" y="430" />
            </Array>
          </mxGeometry>
        </mxCell>
        <mxCell id="v7TOKdM5l5uyi8fNWk8e-34" value="" style="edgeStyle=orthogonalEdgeStyle;rounded=0;orthogonalLoop=1;jettySize=auto;html=1;entryX=0;entryY=0.5;entryDx=0;entryDy=0;entryPerimeter=0;exitX=0.5;exitY=1;exitDx=0;exitDy=0;exitPerimeter=0;" parent="v7TOKdM5l5uyi8fNWk8e-1" source="v7TOKdM5l5uyi8fNWk8e-13" target="v7TOKdM5l5uyi8fNWk8e-22" edge="1">
          <mxGeometry relative="1" as="geometry">
            <mxPoint x="610" y="312.5" as="sourcePoint" />
            <mxPoint x="650" y="440" as="targetPoint" />
            <Array as="points">
              <mxPoint x="575" y="540" />
            </Array>
          </mxGeometry>
        </mxCell>
        <mxCell id="v7TOKdM5l5uyi8fNWk8e-36" value="" style="edgeStyle=elbowEdgeStyle;fontSize=12;html=1;endArrow=blockThin;endFill=1;rounded=0;" parent="v7TOKdM5l5uyi8fNWk8e-1" source="v7TOKdM5l5uyi8fNWk8e-22" edge="1">
          <mxGeometry width="160" relative="1" as="geometry">
            <mxPoint x="710.0000000000002" y="150" as="sourcePoint" />
            <mxPoint x="1100" y="303" as="targetPoint" />
            <Array as="points">
              <mxPoint x="1120" y="440" />
            </Array>
          </mxGeometry>
        </mxCell>
        <mxCell id="v7TOKdM5l5uyi8fNWk8e-38" value="" style="edgeStyle=elbowEdgeStyle;fontSize=12;html=1;endArrow=blockThin;endFill=1;rounded=0;exitX=1;exitY=0.5;exitDx=0;exitDy=0;exitPerimeter=0;entryX=0.5;entryY=1;entryDx=0;entryDy=0;entryPerimeter=0;" parent="v7TOKdM5l5uyi8fNWk8e-1" source="v7TOKdM5l5uyi8fNWk8e-41" target="v7TOKdM5l5uyi8fNWk8e-39" edge="1">
          <mxGeometry width="160" relative="1" as="geometry">
            <mxPoint x="934" y="312.5" as="sourcePoint" />
            <mxPoint x="987" y="440" as="targetPoint" />
            <Array as="points">
              <mxPoint x="1075" y="430" />
            </Array>
          </mxGeometry>
        </mxCell>
        <mxCell id="v7TOKdM5l5uyi8fNWk8e-37" value="" style="edgeStyle=elbowEdgeStyle;fontSize=12;html=1;endArrow=blockThin;endFill=1;rounded=0;exitX=0.5;exitY=1;exitDx=0;exitDy=0;exitPerimeter=0;entryX=0;entryY=0.5;entryDx=0;entryDy=0;entryPerimeter=0;" parent="v7TOKdM5l5uyi8fNWk8e-1" source="v7TOKdM5l5uyi8fNWk8e-15" target="v7TOKdM5l5uyi8fNWk8e-41" edge="1">
          <mxGeometry width="160" relative="1" as="geometry">
            <mxPoint x="370" y="312.5" as="sourcePoint" />
            <mxPoint x="400" y="190" as="targetPoint" />
            <Array as="points">
              <mxPoint x="839" y="380" />
            </Array>
          </mxGeometry>
        </mxCell>
      </root>
    </mxGraphModel>
  </diagram>
  <diagram id="n2f2fHKO4D7jshZtxQOz" name="Activité">
    <mxGraphModel dx="2595" dy="-33" grid="1" gridSize="10" guides="1" tooltips="1" connect="1" arrows="1" fold="1" page="1" pageScale="1" pageWidth="1169" pageHeight="827" math="0" shadow="0">
      <root>
        <mxCell id="ELYhATZnN-t6h7s0Xyxt-0" />
        <mxCell id="ELYhATZnN-t6h7s0Xyxt-1" parent="ELYhATZnN-t6h7s0Xyxt-0" />
        <mxCell id="rSyRf8QvE5O3rKE_BTZF-0" value="Workflow Activité" style="shape=table;childLayout=tableLayout;rowLines=0;columnLines=0;startSize=40;html=1;whiteSpace=wrap;collapsible=0;recursiveResize=0;expand=0;pointerEvents=0;fontStyle=1;align=center;" parent="ELYhATZnN-t6h7s0Xyxt-1" vertex="1">
          <mxGeometry x="-1160" y="840" width="1140" height="694" as="geometry" />
        </mxCell>
        <mxCell id="rSyRf8QvE5O3rKE_BTZF-1" value="Employé.e" style="swimlane;horizontal=0;points=[[0,0.5],[1,0.5]];portConstraint=eastwest;startSize=40;html=1;whiteSpace=wrap;collapsible=0;recursiveResize=0;expand=0;pointerEvents=0;fontStyle=1" parent="rSyRf8QvE5O3rKE_BTZF-0" vertex="1">
          <mxGeometry y="40" width="1140" height="196" as="geometry" />
        </mxCell>
        <mxCell id="rSyRf8QvE5O3rKE_BTZF-2" value="Décalaration" style="swimlane;connectable=0;startSize=40;html=1;whiteSpace=wrap;collapsible=0;recursiveResize=0;expand=0;pointerEvents=0;" parent="rSyRf8QvE5O3rKE_BTZF-1" vertex="1">
          <mxGeometry x="40" width="590" height="196" as="geometry">
            <mxRectangle width="590" height="196" as="alternateBounds" />
          </mxGeometry>
        </mxCell>
        <mxCell id="rSyRf8QvE5O3rKE_BTZF-3" value="Saisie et Enregistrement" style="points=[[0.25,0,0],[0.5,0,0],[0.75,0,0],[1,0.25,0],[1,0.5,0],[1,0.75,0],[0.75,1,0],[0.5,1,0],[0.25,1,0],[0,0.75,0],[0,0.5,0],[0,0.25,0]];shape=mxgraph.bpmn.task;whiteSpace=wrap;rectStyle=rounded;size=10;taskMarker=abstract;isLoopStandard=1;" parent="rSyRf8QvE5O3rKE_BTZF-2" vertex="1">
          <mxGeometry x="110" y="100" width="120" height="80" as="geometry" />
        </mxCell>
        <mxCell id="rSyRf8QvE5O3rKE_BTZF-4" value="Soumission" style="points=[[0.25,0,0],[0.5,0,0],[0.75,0,0],[1,0.25,0],[1,0.5,0],[1,0.75,0],[0.75,1,0],[0.5,1,0],[0.25,1,0],[0,0.75,0],[0,0.5,0],[0,0.25,0]];shape=mxgraph.bpmn.task;whiteSpace=wrap;rectStyle=rounded;size=10;taskMarker=abstract;" parent="rSyRf8QvE5O3rKE_BTZF-2" vertex="1">
          <mxGeometry x="350" y="100" width="120" height="80" as="geometry" />
        </mxCell>
        <mxCell id="rSyRf8QvE5O3rKE_BTZF-5" value="Validation / Corrections" style="swimlane;connectable=0;startSize=40;html=1;whiteSpace=wrap;collapsible=0;recursiveResize=0;expand=0;pointerEvents=0;" parent="rSyRf8QvE5O3rKE_BTZF-1" vertex="1">
          <mxGeometry x="630" width="250" height="196" as="geometry">
            <mxRectangle width="250" height="196" as="alternateBounds" />
          </mxGeometry>
        </mxCell>
        <mxCell id="rSyRf8QvE5O3rKE_BTZF-6" value="Correction&#xa;Employé.e" style="points=[[0.25,0,0],[0.5,0,0],[0.75,0,0],[1,0.25,0],[1,0.5,0],[1,0.75,0],[0.75,1,0],[0.5,1,0],[0.25,1,0],[0,0.75,0],[0,0.5,0],[0,0.25,0]];shape=mxgraph.bpmn.task;whiteSpace=wrap;rectStyle=rounded;size=10;taskMarker=abstract;fillColor=#ffe6cc;strokeColor=#d79b00;" parent="rSyRf8QvE5O3rKE_BTZF-5" vertex="1">
          <mxGeometry x="30" y="100" width="120" height="80" as="geometry" />
        </mxCell>
        <mxCell id="rSyRf8QvE5O3rKE_BTZF-7" value="Finalisation" style="swimlane;connectable=0;startSize=40;html=1;whiteSpace=wrap;collapsible=0;recursiveResize=0;expand=0;pointerEvents=0;" parent="rSyRf8QvE5O3rKE_BTZF-1" vertex="1">
          <mxGeometry x="880" width="260" height="196" as="geometry">
            <mxRectangle width="260" height="196" as="alternateBounds" />
          </mxGeometry>
        </mxCell>
        <mxCell id="rSyRf8QvE5O3rKE_BTZF-9" value="Système" style="swimlane;horizontal=0;points=[[0,0.5],[1,0.5]];portConstraint=eastwest;startSize=40;html=1;whiteSpace=wrap;collapsible=0;recursiveResize=0;expand=0;pointerEvents=0;" parent="rSyRf8QvE5O3rKE_BTZF-0" vertex="1">
          <mxGeometry y="236" width="1140" height="164" as="geometry" />
        </mxCell>
        <mxCell id="rSyRf8QvE5O3rKE_BTZF-10" value="" style="swimlane;connectable=0;startSize=0;html=1;whiteSpace=wrap;collapsible=0;recursiveResize=0;expand=0;pointerEvents=0;fillColor=#ffe6cc;strokeColor=#d79b00;" parent="rSyRf8QvE5O3rKE_BTZF-9" vertex="1">
          <mxGeometry x="40" width="590" height="164" as="geometry">
            <mxRectangle width="590" height="164" as="alternateBounds" />
          </mxGeometry>
        </mxCell>
        <mxCell id="rSyRf8QvE5O3rKE_BTZF-11" value="Brouillon" style="points=[[0.145,0.145,0],[0.5,0,0],[0.855,0.145,0],[1,0.5,0],[0.855,0.855,0],[0.5,1,0],[0.145,0.855,0],[0,0.5,0]];shape=mxgraph.bpmn.event;html=1;verticalLabelPosition=bottom;labelBackgroundColor=#ffffff;verticalAlign=top;align=center;perimeter=ellipsePerimeter;outlineConnect=0;aspect=fixed;outline=throwing;symbol=general;" parent="rSyRf8QvE5O3rKE_BTZF-10" vertex="1">
          <mxGeometry x="270" y="14" width="50" height="50" as="geometry" />
        </mxCell>
        <mxCell id="rSyRf8QvE5O3rKE_BTZF-12" value="&amp;nbsp; &amp;nbsp; &amp;nbsp; &amp;nbsp; &amp;nbsp; &amp;nbsp; &amp;nbsp; &amp;nbsp; Initialisé" style="points=[[0.145,0.145,0],[0.5,0,0],[0.855,0.145,0],[1,0.5,0],[0.855,0.855,0],[0.5,1,0],[0.145,0.855,0],[0,0.5,0]];shape=mxgraph.bpmn.event;html=1;verticalLabelPosition=bottom;labelBackgroundColor=#ffffff;verticalAlign=top;align=center;perimeter=ellipsePerimeter;outlineConnect=0;aspect=fixed;outline=standard;symbol=general;fillColor=#d5e8d4;strokeColor=#82b366;" parent="rSyRf8QvE5O3rKE_BTZF-10" vertex="1">
          <mxGeometry x="20" y="27.5" width="50" height="50" as="geometry" />
        </mxCell>
        <mxCell id="rSyRf8QvE5O3rKE_BTZF-13" value="Soumis&amp;nbsp; &amp;nbsp; &amp;nbsp; &amp;nbsp; &amp;nbsp; &amp;nbsp; &amp;nbsp;&amp;nbsp;" style="points=[[0.145,0.145,0],[0.5,0,0],[0.855,0.145,0],[1,0.5,0],[0.855,0.855,0],[0.5,1,0],[0.145,0.855,0],[0,0.5,0]];shape=mxgraph.bpmn.event;html=1;verticalLabelPosition=bottom;labelBackgroundColor=#ffffff;verticalAlign=top;align=center;perimeter=ellipsePerimeter;outlineConnect=0;aspect=fixed;outline=throwing;symbol=general;" parent="rSyRf8QvE5O3rKE_BTZF-10" vertex="1">
          <mxGeometry x="510" y="27.5" width="50" height="50" as="geometry" />
        </mxCell>
        <mxCell id="fbQJc2_H4duywYDfFrFH-0" value="En retard" style="points=[[0.145,0.145,0],[0.5,0,0],[0.855,0.145,0],[1,0.5,0],[0.855,0.855,0],[0.5,1,0],[0.145,0.855,0],[0,0.5,0]];shape=mxgraph.bpmn.event;html=1;verticalLabelPosition=bottom;labelBackgroundColor=#ffffff;verticalAlign=top;align=center;perimeter=ellipsePerimeter;outlineConnect=0;aspect=fixed;outline=throwing;symbol=general;fillColor=#fff2cc;strokeColor=#d6b656;" parent="rSyRf8QvE5O3rKE_BTZF-10" vertex="1">
          <mxGeometry x="270" y="84" width="50" height="50" as="geometry" />
        </mxCell>
        <mxCell id="rSyRf8QvE5O3rKE_BTZF-14" value="" style="swimlane;connectable=0;startSize=0;html=1;whiteSpace=wrap;collapsible=0;recursiveResize=0;expand=0;pointerEvents=0;" parent="rSyRf8QvE5O3rKE_BTZF-9" vertex="1">
          <mxGeometry x="630" width="250" height="164" as="geometry">
            <mxRectangle width="250" height="164" as="alternateBounds" />
          </mxGeometry>
        </mxCell>
        <mxCell id="rSyRf8QvE5O3rKE_BTZF-16" value="&amp;nbsp; &amp;nbsp; &amp;nbsp; &amp;nbsp; &amp;nbsp; &amp;nbsp; Validé" style="points=[[0.145,0.145,0],[0.5,0,0],[0.855,0.145,0],[1,0.5,0],[0.855,0.855,0],[0.5,1,0],[0.145,0.855,0],[0,0.5,0]];shape=mxgraph.bpmn.event;html=1;verticalLabelPosition=bottom;labelBackgroundColor=#ffffff;verticalAlign=top;align=center;perimeter=ellipsePerimeter;outlineConnect=0;aspect=fixed;outline=throwing;symbol=general;" parent="rSyRf8QvE5O3rKE_BTZF-14" vertex="1">
          <mxGeometry x="180" y="27.5" width="50" height="50" as="geometry" />
        </mxCell>
        <mxCell id="rSyRf8QvE5O3rKE_BTZF-15" value="" style="swimlane;connectable=0;startSize=0;html=1;whiteSpace=wrap;collapsible=0;recursiveResize=0;expand=0;pointerEvents=0;" parent="rSyRf8QvE5O3rKE_BTZF-9" vertex="1">
          <mxGeometry x="880" width="260" height="164" as="geometry">
            <mxRectangle width="260" height="164" as="alternateBounds" />
          </mxGeometry>
        </mxCell>
        <mxCell id="rSyRf8QvE5O3rKE_BTZF-18" value="Terminé" style="points=[[0.145,0.145,0],[0.5,0,0],[0.855,0.145,0],[1,0.5,0],[0.855,0.855,0],[0.5,1,0],[0.145,0.855,0],[0,0.5,0]];shape=mxgraph.bpmn.event;html=1;verticalLabelPosition=bottom;labelBackgroundColor=#ffffff;verticalAlign=top;align=center;perimeter=ellipsePerimeter;outlineConnect=0;aspect=fixed;outline=end;symbol=terminate2;fillColor=#f8cecc;strokeColor=#b85450;" parent="rSyRf8QvE5O3rKE_BTZF-15" vertex="1">
          <mxGeometry x="196" y="27.5" width="50" height="50" as="geometry" />
        </mxCell>
        <mxCell id="rSyRf8QvE5O3rKE_BTZF-19" value="Manager" style="swimlane;horizontal=0;points=[[0,0.5],[1,0.5]];portConstraint=eastwest;startSize=40;html=1;whiteSpace=wrap;collapsible=0;recursiveResize=0;expand=0;pointerEvents=0;" parent="rSyRf8QvE5O3rKE_BTZF-0" vertex="1">
          <mxGeometry y="400" width="1140" height="294" as="geometry" />
        </mxCell>
        <mxCell id="rSyRf8QvE5O3rKE_BTZF-20" value="" style="swimlane;connectable=0;startSize=0;html=1;whiteSpace=wrap;collapsible=0;recursiveResize=0;expand=0;pointerEvents=0;" parent="rSyRf8QvE5O3rKE_BTZF-19" vertex="1">
          <mxGeometry x="40" width="590" height="294" as="geometry">
            <mxRectangle width="590" height="294" as="alternateBounds" />
          </mxGeometry>
        </mxCell>
        <mxCell id="rSyRf8QvE5O3rKE_BTZF-21" value="" style="swimlane;connectable=0;startSize=0;html=1;whiteSpace=wrap;collapsible=0;recursiveResize=0;expand=0;pointerEvents=0;" parent="rSyRf8QvE5O3rKE_BTZF-19" vertex="1">
          <mxGeometry x="630" width="250" height="294" as="geometry">
            <mxRectangle width="250" height="294" as="alternateBounds" />
          </mxGeometry>
        </mxCell>
        <mxCell id="rSyRf8QvE5O3rKE_BTZF-22" value="Validation" style="points=[[0.25,0,0],[0.5,0,0],[0.75,0,0],[1,0.25,0],[1,0.5,0],[1,0.75,0],[0.75,1,0],[0.5,1,0],[0.25,1,0],[0,0.75,0],[0,0.5,0],[0,0.25,0]];shape=mxgraph.bpmn.task;whiteSpace=wrap;rectStyle=rounded;size=10;taskMarker=abstract;" parent="rSyRf8QvE5O3rKE_BTZF-21" vertex="1">
          <mxGeometry x="30" y="20" width="120" height="80" as="geometry" />
        </mxCell>
        <mxCell id="rSyRf8QvE5O3rKE_BTZF-23" value="Correction&#xa;demandée" style="points=[[0.25,0,0],[0.5,0,0],[0.75,0,0],[1,0.25,0],[1,0.5,0],[1,0.75,0],[0.75,1,0],[0.5,1,0],[0.25,1,0],[0,0.75,0],[0,0.5,0],[0,0.25,0]];shape=mxgraph.bpmn.task;whiteSpace=wrap;rectStyle=rounded;size=10;taskMarker=abstract;fillColor=#ffe6cc;strokeColor=#d79b00;" parent="rSyRf8QvE5O3rKE_BTZF-21" vertex="1">
          <mxGeometry x="30" y="120" width="120" height="80" as="geometry" />
        </mxCell>
        <mxCell id="rSyRf8QvE5O3rKE_BTZF-24" value="" style="swimlane;connectable=0;startSize=0;html=1;whiteSpace=wrap;collapsible=0;recursiveResize=0;expand=0;pointerEvents=0;" parent="rSyRf8QvE5O3rKE_BTZF-19" vertex="1">
          <mxGeometry x="880" width="260" height="294" as="geometry">
            <mxRectangle width="260" height="294" as="alternateBounds" />
          </mxGeometry>
        </mxCell>
        <mxCell id="rSyRf8QvE5O3rKE_BTZF-26" value="Finalisation" style="points=[[0.25,0,0],[0.5,0,0],[0.75,0,0],[1,0.25,0],[1,0.5,0],[1,0.75,0],[0.75,1,0],[0.5,1,0],[0.25,1,0],[0,0.75,0],[0,0.5,0],[0,0.25,0]];shape=mxgraph.bpmn.task;whiteSpace=wrap;rectStyle=rounded;size=10;taskMarker=abstract;" parent="rSyRf8QvE5O3rKE_BTZF-24" vertex="1">
          <mxGeometry x="38" y="20" width="120" height="80" as="geometry" />
        </mxCell>
        <mxCell id="rSyRf8QvE5O3rKE_BTZF-27" style="edgeStyle=orthogonalEdgeStyle;rounded=0;orthogonalLoop=1;jettySize=auto;html=1;exitX=1;exitY=0.5;exitDx=0;exitDy=0;exitPerimeter=0;entryX=0;entryY=0.5;entryDx=0;entryDy=0;entryPerimeter=0;" parent="rSyRf8QvE5O3rKE_BTZF-0" source="rSyRf8QvE5O3rKE_BTZF-3" target="rSyRf8QvE5O3rKE_BTZF-11" edge="1">
          <mxGeometry relative="1" as="geometry" />
        </mxCell>
        <mxCell id="rSyRf8QvE5O3rKE_BTZF-28" style="edgeStyle=orthogonalEdgeStyle;rounded=0;orthogonalLoop=1;jettySize=auto;html=1;exitX=1;exitY=0.5;exitDx=0;exitDy=0;exitPerimeter=0;entryX=0;entryY=0.5;entryDx=0;entryDy=0;entryPerimeter=0;" parent="rSyRf8QvE5O3rKE_BTZF-0" source="rSyRf8QvE5O3rKE_BTZF-12" target="rSyRf8QvE5O3rKE_BTZF-3" edge="1">
          <mxGeometry relative="1" as="geometry" />
        </mxCell>
        <mxCell id="rSyRf8QvE5O3rKE_BTZF-29" value="" style="edgeStyle=elbowEdgeStyle;fontSize=12;html=1;endArrow=blockThin;endFill=1;rounded=0;entryX=0;entryY=0.5;entryDx=0;entryDy=0;entryPerimeter=0;exitX=1;exitY=0.5;exitDx=0;exitDy=0;exitPerimeter=0;" parent="rSyRf8QvE5O3rKE_BTZF-0" source="rSyRf8QvE5O3rKE_BTZF-4" target="rSyRf8QvE5O3rKE_BTZF-13" edge="1">
          <mxGeometry width="160" relative="1" as="geometry">
            <mxPoint x="430" y="696" as="sourcePoint" />
            <mxPoint x="300" y="730.9999999999998" as="targetPoint" />
            <Array as="points" />
          </mxGeometry>
        </mxCell>
        <mxCell id="rSyRf8QvE5O3rKE_BTZF-30" value="" style="edgeStyle=elbowEdgeStyle;fontSize=12;html=1;endArrow=blockThin;endFill=1;rounded=0;exitX=1;exitY=0.5;exitDx=0;exitDy=0;exitPerimeter=0;" parent="rSyRf8QvE5O3rKE_BTZF-0" source="rSyRf8QvE5O3rKE_BTZF-11" target="rSyRf8QvE5O3rKE_BTZF-4" edge="1">
          <mxGeometry width="160" relative="1" as="geometry">
            <mxPoint x="500" y="190" as="sourcePoint" />
            <mxPoint x="535" y="312.5" as="targetPoint" />
            <Array as="points" />
          </mxGeometry>
        </mxCell>
        <mxCell id="rSyRf8QvE5O3rKE_BTZF-31" value="" style="edgeStyle=elbowEdgeStyle;fontSize=12;html=1;endArrow=blockThin;endFill=1;rounded=0;entryX=0.5;entryY=0;entryDx=0;entryDy=0;entryPerimeter=0;exitX=0.5;exitY=0;exitDx=0;exitDy=0;exitPerimeter=0;" parent="rSyRf8QvE5O3rKE_BTZF-0" source="rSyRf8QvE5O3rKE_BTZF-6" target="rSyRf8QvE5O3rKE_BTZF-12" edge="1">
          <mxGeometry width="160" relative="1" as="geometry">
            <mxPoint x="640" y="425" as="sourcePoint" />
            <mxPoint x="770" y="230" as="targetPoint" />
            <Array as="points">
              <mxPoint x="490" y="110" />
            </Array>
          </mxGeometry>
        </mxCell>
        <mxCell id="rSyRf8QvE5O3rKE_BTZF-32" value="" style="edgeStyle=orthogonalEdgeStyle;rounded=0;orthogonalLoop=1;jettySize=auto;html=1;entryX=0;entryY=0.5;entryDx=0;entryDy=0;entryPerimeter=0;" parent="rSyRf8QvE5O3rKE_BTZF-0" source="rSyRf8QvE5O3rKE_BTZF-13" target="rSyRf8QvE5O3rKE_BTZF-6" edge="1">
          <mxGeometry relative="1" as="geometry">
            <Array as="points">
              <mxPoint x="575" y="180" />
            </Array>
          </mxGeometry>
        </mxCell>
        <mxCell id="rSyRf8QvE5O3rKE_BTZF-33" value="" style="edgeStyle=elbowEdgeStyle;fontSize=12;html=1;endArrow=blockThin;endFill=1;rounded=0;entryX=0;entryY=0.5;entryDx=0;entryDy=0;entryPerimeter=0;exitX=1;exitY=0.5;exitDx=0;exitDy=0;exitPerimeter=0;" parent="rSyRf8QvE5O3rKE_BTZF-0" source="rSyRf8QvE5O3rKE_BTZF-22" target="rSyRf8QvE5O3rKE_BTZF-16" edge="1">
          <mxGeometry width="160" relative="1" as="geometry">
            <mxPoint x="570" y="721" as="sourcePoint" />
            <mxPoint x="530" y="730.9999999999998" as="targetPoint" />
            <Array as="points" />
          </mxGeometry>
        </mxCell>
        <mxCell id="rSyRf8QvE5O3rKE_BTZF-34" value="" style="edgeStyle=orthogonalEdgeStyle;rounded=0;orthogonalLoop=1;jettySize=auto;html=1;entryX=1;entryY=0.5;entryDx=0;entryDy=0;entryPerimeter=0;exitX=0.5;exitY=0;exitDx=0;exitDy=0;exitPerimeter=0;" parent="rSyRf8QvE5O3rKE_BTZF-0" source="rSyRf8QvE5O3rKE_BTZF-16" target="rSyRf8QvE5O3rKE_BTZF-6" edge="1">
          <mxGeometry relative="1" as="geometry">
            <mxPoint x="859" y="270" as="sourcePoint" />
            <mxPoint x="325" y="756" as="targetPoint" />
            <Array as="points">
              <mxPoint x="835" y="180" />
            </Array>
          </mxGeometry>
        </mxCell>
        <mxCell id="rSyRf8QvE5O3rKE_BTZF-35" value="" style="edgeStyle=orthogonalEdgeStyle;rounded=0;orthogonalLoop=1;jettySize=auto;html=1;entryX=0;entryY=0.5;entryDx=0;entryDy=0;entryPerimeter=0;exitX=1;exitY=0.5;exitDx=0;exitDy=0;exitPerimeter=0;" parent="rSyRf8QvE5O3rKE_BTZF-0" source="rSyRf8QvE5O3rKE_BTZF-13" target="rSyRf8QvE5O3rKE_BTZF-22" edge="1">
          <mxGeometry relative="1" as="geometry">
            <mxPoint x="585" y="287.5" as="sourcePoint" />
            <mxPoint x="700" y="230" as="targetPoint" />
            <Array as="points">
              <mxPoint x="620" y="289" />
              <mxPoint x="620" y="460" />
            </Array>
          </mxGeometry>
        </mxCell>
        <mxCell id="rSyRf8QvE5O3rKE_BTZF-36" value="" style="edgeStyle=orthogonalEdgeStyle;rounded=0;orthogonalLoop=1;jettySize=auto;html=1;entryX=0;entryY=0.5;entryDx=0;entryDy=0;entryPerimeter=0;exitX=0.5;exitY=1;exitDx=0;exitDy=0;exitPerimeter=0;" parent="rSyRf8QvE5O3rKE_BTZF-0" source="rSyRf8QvE5O3rKE_BTZF-13" target="rSyRf8QvE5O3rKE_BTZF-23" edge="1">
          <mxGeometry relative="1" as="geometry">
            <mxPoint x="610" y="312.5" as="sourcePoint" />
            <mxPoint x="650" y="440" as="targetPoint" />
            <Array as="points">
              <mxPoint x="575" y="560" />
            </Array>
          </mxGeometry>
        </mxCell>
        <mxCell id="rSyRf8QvE5O3rKE_BTZF-37" value="" style="edgeStyle=orthogonalEdgeStyle;rounded=0;orthogonalLoop=1;jettySize=auto;html=1;entryX=1;entryY=0.5;entryDx=0;entryDy=0;entryPerimeter=0;exitX=0.5;exitY=1;exitDx=0;exitDy=0;exitPerimeter=0;" parent="rSyRf8QvE5O3rKE_BTZF-0" source="rSyRf8QvE5O3rKE_BTZF-16" target="rSyRf8QvE5O3rKE_BTZF-23" edge="1">
          <mxGeometry relative="1" as="geometry">
            <mxPoint x="889" y="287.5" as="sourcePoint" />
            <mxPoint x="770" y="190" as="targetPoint" />
            <Array as="points">
              <mxPoint x="835" y="560" />
            </Array>
          </mxGeometry>
        </mxCell>
        <mxCell id="rSyRf8QvE5O3rKE_BTZF-38" value="" style="edgeStyle=elbowEdgeStyle;fontSize=12;html=1;endArrow=blockThin;endFill=1;rounded=0;entryX=0.5;entryY=1;entryDx=0;entryDy=0;entryPerimeter=0;exitX=0.5;exitY=1;exitDx=0;exitDy=0;exitPerimeter=0;" parent="rSyRf8QvE5O3rKE_BTZF-0" source="rSyRf8QvE5O3rKE_BTZF-23" target="rSyRf8QvE5O3rKE_BTZF-12" edge="1">
          <mxGeometry width="160" relative="1" as="geometry">
            <mxPoint x="710.0000000000002" y="150" as="sourcePoint" />
            <mxPoint x="95" y="287.5" as="targetPoint" />
            <Array as="points">
              <mxPoint x="400" y="630" />
            </Array>
          </mxGeometry>
        </mxCell>
        <mxCell id="rSyRf8QvE5O3rKE_BTZF-39" value="" style="edgeStyle=elbowEdgeStyle;fontSize=12;html=1;endArrow=blockThin;endFill=1;rounded=0;exitX=1;exitY=0.5;exitDx=0;exitDy=0;exitPerimeter=0;entryX=0;entryY=0.5;entryDx=0;entryDy=0;entryPerimeter=0;" parent="rSyRf8QvE5O3rKE_BTZF-0" source="rSyRf8QvE5O3rKE_BTZF-16" target="rSyRf8QvE5O3rKE_BTZF-26" edge="1">
          <mxGeometry width="160" relative="1" as="geometry">
            <mxPoint x="370" y="312.5" as="sourcePoint" />
            <mxPoint x="400" y="190" as="targetPoint" />
            <Array as="points" />
          </mxGeometry>
        </mxCell>
        <mxCell id="rSyRf8QvE5O3rKE_BTZF-40" value="" style="edgeStyle=elbowEdgeStyle;fontSize=12;html=1;endArrow=blockThin;endFill=1;rounded=0;exitX=1;exitY=0.5;exitDx=0;exitDy=0;exitPerimeter=0;entryX=0;entryY=0.5;entryDx=0;entryDy=0;entryPerimeter=0;" parent="rSyRf8QvE5O3rKE_BTZF-0" source="rSyRf8QvE5O3rKE_BTZF-26" target="rSyRf8QvE5O3rKE_BTZF-18" edge="1">
          <mxGeometry width="160" relative="1" as="geometry">
            <mxPoint x="934" y="312.5" as="sourcePoint" />
            <mxPoint x="987" y="440" as="targetPoint" />
            <Array as="points" />
          </mxGeometry>
        </mxCell>
        <mxCell id="fbQJc2_H4duywYDfFrFH-1" style="edgeStyle=orthogonalEdgeStyle;rounded=0;orthogonalLoop=1;jettySize=auto;html=1;exitX=0;exitY=0.5;exitDx=0;exitDy=0;exitPerimeter=0;entryX=0.5;entryY=1;entryDx=0;entryDy=0;entryPerimeter=0;" parent="rSyRf8QvE5O3rKE_BTZF-0" source="fbQJc2_H4duywYDfFrFH-0" target="rSyRf8QvE5O3rKE_BTZF-3" edge="1">
          <mxGeometry relative="1" as="geometry">
            <mxPoint x="120" y="312.5" as="sourcePoint" />
            <mxPoint x="160" y="190" as="targetPoint" />
          </mxGeometry>
        </mxCell>
        <mxCell id="fgEqw8BamoQ4a_vmQxUj-0" style="edgeStyle=orthogonalEdgeStyle;rounded=0;orthogonalLoop=1;jettySize=auto;html=1;" edge="1" parent="rSyRf8QvE5O3rKE_BTZF-0" source="fbQJc2_H4duywYDfFrFH-0" target="rSyRf8QvE5O3rKE_BTZF-4">
          <mxGeometry relative="1" as="geometry">
            <mxPoint x="320" y="355" as="sourcePoint" />
            <mxPoint x="220" y="230" as="targetPoint" />
          </mxGeometry>
        </mxCell>
      </root>
    </mxGraphModel>
  </diagram>
</mxfile>
